<svg xmlns="http://www.w3.org/2000/svg" viewBox="0 0 127.4 146.3">
  <path fill="#fff" d="m110.4 1.6-1.5 1.3c-5-1.3-9.4 5.3-12.5 8.3-1.4 1.5-2.9 2.7-3.8 4.5A26 26 0 0 0 84 12c-2.4-.7-4.4 0-5.2-2.7l-2.2 1V8.7c-1.5.6-2.4 2.1-3.8 2.8-2.4 1.3-5.5 1.3-8 2.3-1.2.5-3.5 2.2-4.9 1.8-1.1-.4-2.2-2.4-3-3.4-3.5-4.2-8.7-12.7-14.5-8l-1.3-1.3v1.7l-1-.3c-.5 2.1.6 3.1.5 5.1-.3 5.2-1.5 9.7-.7 15 .4 2.5 2.4 5.9 2.2 8.4-.2 2.6-2.6 5.7-3.4 8.3A53 53 0 0 0 36 58.4l-1.6-.7 1.3 3.2-1-.3-.3.3c.6 1.4 1.8 2 2.6 3.2 1 1.6 1.4 3.4 2.6 4.9 3.1 3.7 8 5.8 12.4 8 20.6 10.2 53.6 7 64.1-15.9 1-1.9 2.5-3.6 3-5.7h-1.4l1-2.9-2.5 1c0-4.6-1.7-9-3.4-13.2-.6-1.5-1.8-3.1-2.1-4.8-.5-2.7 2.3-7.2 2.6-10.2.6-6.6-2.3-13.7-.6-19.8l-1-2-1.3 1h-.3l.3-2.9zm-79.3 21c-1.7.2-4.1 2.8-5.6 3-1.4.2-4.1.3-5.4.9-2.4 1.1-3.9 3.3-5.9 4.7-4.1 2.9-8 4.8-8.2 10.6-2.6.4-3.4 6.2-2.6 8.4-2.4.5-.8 6.3-.2 8.3-5.6.3 3.5 7.1 4 8.3C3.7 64 3.7 68 7.2 69v.8c-2 1.3-.5 4.9 1 6.1-3.1 2 3.7 4.7 5.2 5.4-2.2 2.3 2.4 3.8 4.1 4.5v.2c-4-1.4-1.8 2.2 1 3-1.6 2.8 2.4 3.4 4.5 3.5-1.9 2.6 1.7 2.3 3.5 2.6-.1-2-.5-3.8.2-5.8 2.4-7.2 13.6-4.8 19.6-4.8.2-1.9 1.9-6.1.7-7.8-.7-1-2.2-1.4-3.2-2-1.9-1.2-3.6-2.9-5.2-4.3-1.8-1.7-2-3.9-3.4-5.7-1.2-1.5-3.1-.8-3-3.2-4.4-2.5-3.6-11.9 2.6-10.9l2.7-11.9 2.5-6-2-10-5.5.9c-.4-.7-.8-1-1.4-1zm21.6 14.5h5.7a32.4 32.4 0 0 1 9.7.9c2 .6 2.8 2.3 2.2 4.3l6.7-.4c0-1.6.4-3 2-3.7 1.7-.8 3.9-.4 5.7-.4 3.7-.2 7.5-.7 11.2-.7 2.1 0 5.3.6 5.4 3.2.2 2.4-1.5 9.9-3.5 11.4-1.1.9-2.7.8-4.1.8-3.6-.3-10 .3-13.2-1.6-3.2-1.9-1-6.3-6-6.4-1.5 0-3.7.1-4.7 1.3-1.4 1.7-.7 4.1-3 5.3-3.2 1.5-7.8.7-11.2 1.2-1.7.2-3.8.6-5.5-.3-2.5-1.4-4-10.3-3-12.9.8-2.2 3.8-2 5.6-2zm-.7 2.4v.1h-.8c-.6 0-1.1.2-1.4.6-.9.9.1 3.2.3 4.2.3 1.4.4 4 1.4 5 .6.7 2.6.7 4.3.5l6.8-.6a7 7 0 0 0 3.2-.6c1.4-1.1 2.2-6.3 2.4-8H68l-12.7-.9h-.2c-.8-.1-1.5-.3-2.3-.3H52zm43.4 0a16.8 16.8 0 0 0-2 .2l-2.8.2a32.2 32.2 0 0 1-4.3.4h-.2l-6.4.3c.2 1.8.8 7 2.4 8a5 5 0 0 0 2.2.7h.5l1 .1 5.4.4c1.8.2 4 .5 5-.2 1.1-.8 2.9-8.4 1.9-9.4-.4-.5-1.4-.7-2.4-.7h-.3zm-36.7.6a5.6 5.6 0 0 1 2.7.7c3.3 1.8 2.6 5.6 0 7.3l-.7.4-.7.3a4.3 4.3 0 0 1-1.1.2c-1.3 0-2-.5-2-.6-2.9-2.2-3.7-6 .3-8 .5-.2.9-.3 1.5-.3zm30.2.1h.5a4.6 4.6 0 0 1 3.3 1.5 4 4 0 0 1 1 3c-.2.7-1.6 4.3-4.4 4.3l-1.6-.4c-3.3-1.4-4.6-5.8-.9-7.8l2.1-.6zm-32.5 1.3c-.8.2-.5 1.3.2 1.2.7-.2.5-1.2-.1-1.2h-.1zm30.5 0c-1.5.1-.2 2.2.8.1l-.7-.1h-.1zm-28.3 2.7a2.8 2.8 0 0 0-.7.1c-2.7.7-1.3 4.8 1.3 4.2 2.8-.7 2-4-.2-4.3a2.4 2.4 0 0 0-.4 0zm30 .2c-3 0-2.3 4.5.7 4.2 2.9-.2 2.1-4.2-.6-4.2zm-15 5.3h.4a10 10 0 0 1 3.8.6c2.4 1.5.3 4.3-1.6 5a6.8 6.8 0 0 1-6.4-1c-1.7-1.4-2-3.4.3-4.2a16.2 16.2 0 0 1 3.5-.4zm-40 1.8-1.3 2H32l-.6-.6c-1.1 2-1 4.8 1.2 6 .3-3.2 2.2-3.9 1-7.4zm40 7c2.3 1.1 2.7 4.3 5.5 5 2.1.6 4.3-.7 6-1.7.6-.4 1.7-1.3 2.3-.5 1.2 1.6-2.8 3.4-3.8 3.8-4.5 1.5-6.5-.4-10-2.7-1.5 3.6-6 3.8-9.3 2.6-1.1-.4-4.3-1.7-3.7-3.4.5-1.2 5.6 2 7 2 3 .3 4.9-2.6 6-5.1zm34.3 16.1c-3.1 1.6-5.7 3.7-9 5a62.3 62.3 0 0 1-36.2 3c-4.7-.9-8.8-3.8-13.4-4.8l-1 6.7h61.9l-2.2-9.9h-.1zm-36.4 22-.1.1c-1.8.2-2.3 2.3-3 3.8l-5.6 11.2c-.6 1.1-2.3 3.2-2 4.4.3 1.5 4 3 5.2 3.6l-5.4 5.8v.3l4.2 2.5 5.1-5.1.8.9 3 3.3c4.4-.7 9.5-4.3 13.5-6.3 1.6-1 3.6-1.6 4.7-3-3.9-.5-10.3-1.9-14-.6l1.6 2.5-4.2 1.9-1.6-1.5 10.9-10h.3l2.3 2.3c2.6-4.5 6.9-11 7.6-16-5.6.4-11.3 4.3-16.6 6l1.5 3.2-2.8 3.2-7 7.4h-.3l-2.3-1.6 1.9-4.2 3.6 1.6-1.3-15.7zm22 .7-1.3 4.2-5 10.2c-.7-.5-1.7-1.6-2.6-1.5-.9.1-1.9 1.4-2.6 1.9l-6 5.4-2.6 2.8 1.7 2c.8-.2 4-1.5 5-2l-1.3-2.5 11.9.6v.3l-11.2 5.6-4.9 2.2-4-2.8-.7-.6-.3.3-5.5 4-2.5-1.3 5.4-6.4-5.8-3.5 9.3-18.3h.3l1.3 13.5-3.2-1.3-2.5 4.8 3.5 1.8 2.5-2.2 6.2-6 2-2.6-1.4-2.8c4.3-1 10.6-3.3 14.3-5.8zm-2.5 5.1c-1.8 1.4-5 5.7-4.5 8h.3l4.2-8zM70.7 104c-.7 1.4-.8 5.6.7 6.4l-.7-6.4zM86 120.3h-.3c-2.8.5-6.3 2.3-9 3.7-.7.4-1.1.8-2.1 1.6s1.6-.6 5-2.3c0 0 7.5-2.9 6.4-3z"/>
  <path fill="#ffc507" d="M110.4 1.6 108.8 3c-5-1.3-9.4 5.2-12.5 8.3-1.4 1.4-3 2.7-3.8 4.5-2.7-1.8-5.5-3-8.6-3.7-2.4-.6-4.4 0-5.2-2.7l-2.2 1V8.7c-1.5.6-2.4 2-3.8 2.8-2.4 1.2-5.5 1.3-8 2.3-1.2.5-3.5 2.2-4.8 1.8-1.2-.4-2.3-2.5-3.1-3.4C53.3 8 48-.5 42.3 4.2L41 2.9v1.6l-1-.3c-.5 2.1.6 3.2.5 5-.3 5.3-1.5 9.8-.7 15.1.4 2.5 2.4 6 2.2 8.4-.2 2.6-2.6 5.7-3.4 8.3A54 54 0 0 0 36 54.2c1.7.8 15.3 7 26.6-2.2-2.3.2-4.8 0-7 .3-1.6.2-3.7.6-5.3-.3-2.6-1.4-4-10.3-3-13 .7-2.1 3.7-1.9 5.5-1.9h7.7c2.8 0 5.5.3 7.7.9 2 .6 2.8 2.3 2.2 4.3l6.7-.4c0-1.6.4-3 2-3.7 1.7-.8 3.9-.4 5.7-.4 3.7-.2 7.5-.7 11.2-.7 2.1 0 5.3.6 5.4 3.2.2 2.4-1.6 10-3.5 11.4-1.1 1-2.7.9-4.1.8-2.2-.2-5.3 0-8.1-.3 2.4 2 11.1 7.1 29.9-3.6a53 53 0 0 0-2.8-8.3c-.6-1.5-1.8-3.1-2.1-4.8-.5-2.7 2.3-7.2 2.6-10.2.6-6.6-2.3-13.7-.6-19.8l-1-2-1.3 1h-.3zM45.5 5.8l1 .1c2.7.4 4.9 2.2 5.6 4.5 1 2 2.6 3.8 3.4 5.8 1.5 3 .2 6.8-3 8.6-2 .7-4 2.6-6 3.5H46c-2.8.5-3.7-1-3.7-3 .3-2.5-1-4.9-.5-7.4 0-2.9-.7-5.7 0-8.6-.2-2.3 1.4-3.4 3.7-3.5zm60.5.5a3 3 0 0 1 3 2.6c1 2.2 2 4.9 1.8 7.5-.4 3 .7 6.3-.6 9.2-.4 2.4-3 4.3-5.3 3.1-3.1-2-7.7-3.5-8.6-7.4l-.3-3.7c0-2.4 2.9-3.4 3.8-5.4 1.5-1 2-3.5 3.9-4.6.6-.8 1.4-1.2 2.3-1.3zM87 26.8c.7 0 1.3 0 1.7.7 1.6 2.5-1 5.1-3.5 5.4l-2.3-.6c-2-1-.2-3.5 1.3-4.4.8-.3 1.9-1 2.9-1.1zm-23.8.7c1.9 0 3.6 1.4 4.6 3 .7 2.3-1.8 3.5-3.7 3.4a4 4 0 0 1-1.3-.6c-1.9-1-3.3-3.8-1.5-5.3a4 4 0 0 1 2-.5zM52 39.5a7 7 0 0 0-.8 0c-.6.1-1.1.3-1.4.7-.9.9.1 3.2.3 4.3.3 1.3.4 3.9 1.4 5 .6.6 2.6.6 4.3.4l6.8-.5c1.3-.1 2.5-.3 3.2-.8 1.5-1 2.2-6.2 2.4-8H68l-12.7-.8H55a29.2 29.2 0 0 0-3.1-.3zm43.4 0a13.2 13.2 0 0 0-2 .2l-2.8.2a57.5 57.5 0 0 0-4.5.4l-6.4.3c.2 1.8.8 7 2.4 8a5 5 0 0 0 2.2.7h1.5l5.4.5c1.8.2 4 .5 5-.2 1.1-.8 2.9-8.4 1.9-9.4-.4-.5-1.4-.6-2.4-.7h-.3zm-36.7.6h.1a5 5 0 0 1 2.5.7c3.4 1.8 2.7 5.6 0 7.3l-.6.4a6 6 0 0 1-1.7.5h-.1c-1.3 0-2-.5-2-.5-3-2.3-3.8-6 .3-8 .4-.3 1-.4 1.5-.4zm30.7.1a4.6 4.6 0 0 1 3.3 1.5 4 4 0 0 1 1 3c-.2.7-1.6 4.4-4.4 4.3-.6 0-1-.2-1.5-.4h-.1c-3.3-1.4-4.6-5.8-1-7.8a7.7 7.7 0 0 1 2.7-.6zm-3 2.2zm-30 .3zm18.2 1.8c-1.5 0-3.7.1-4.7 1.3l-.7 1.4c3.4-1.6 6.4-1.5 8.8-.7-.5-1.1-1.3-2-3.4-2zM61 46.9zm28.8 1.6zM7.7 69.8l1 1zm12.5 19.8.3.3zm5.3 3 .2.1z"/>
  <path fill="#ffc507" d="M20.1 60.2c-.3-1.4 2.6-2.7.9-3.7-1.5-.5-3.5 3.5-3.4.5-.1-2.1 0-4.2.7-6.2a10 10 0 0 1 1.7-4.7c1.3-1.8 2.2-3.8 3.1-5.8 1-1.6 2.1-3.1 4.1-2.4 1-.5 2 2 2.7 1 0-1.4 1.2-.6 1.4-1.1.4-.8-.3-2.4 0-2.5 2.5-.6 5.2-.2 7.8-.2 1 1.4-.3 3.8-.8 5.5-.4 1.5-.8 3-.8 4.6 0 2-1 3.4-1.6 5-1.5 1-3.5.4-4 2.5-1.2.7-2.4 1.8-1.7 3.4 0 2 1.9 2.7 2.5 4.2.7 2.2 2.8 2.8 4.3 4.4 1.1 1.1 1.5 2.8 2.5 4 1 1.4 2.4 2.7 3.7 4 1.4 1.2 2.6 1.7 3.8 2.6 2 1 1.5 4 .4 5.4-2 .7-2.6-2.1-3.7-3.1-1.3-1.3-3.3-.6-3.5 1-1 1-1.9-2.2-2.3 0-1.1 2-1.3-1.9-2.2 0-1.8.4-2.6-1.7-4.2-2-1.4-.8-3-1.3-4-2.7-1.6-1.3-3.4-2.5-4.6-4.2-.9-1.5-2.1-2.8-2.3-4.6.3-1.3-.3-3-1.5-1.8-.6-.8-.5-3.5 1-3z"/>
  <path fill="#15284a" d="M110 0h-.2c-1 0-1.7.5-2.6.8-5 1.7-7.5 4.8-11.2 8.5-1 1-2.6 3.4-4.1 3.6-1.2.2-3.1-1.1-4.2-1.6-2-.7-4.4-.7-6.4-1.5-1.8-.8-2.5-2.4-4.8-2.7-2-.2-3 2-4.5 2.8-3.6 1.9-8 2.2-11.8 4.2C57.5 8.6 50-.1 43.6 1c-2.4.5-4.2-.6-5.4 2.5-.9 2.3.2 3.8.4 6 .1 2.2-.9 4.8-1 7 0 1.4.8 3.6-.5 4.6-1.9 1.3-4.2-.3-6 0-2 .5-3.3 2.4-5.2 3-1.8.6-4 .1-5.7.8-2.6 1-4.2 3.3-6.2 4.9-2.1 1.8-4.5 1.8-6.5 4C6.2 35.6 6 38.3 5 40c-.4.8-1.3 1-1.7 1.7-.4 1-.1 2-.5 2.8a24.6 24.6 0 0 0-1.4 13.2c-3.5 1.8 1 5.3 1.6 7.4.3 1-.1 1.8.3 2.8.5 1 1.6 1.5 1.9 2.6 1.2 5.2 0 9.3 6.4 10.9-.6 2.5 1 2.6 2 4.5 1 2 2.2 4.6 3.9 6.2.8.8 2.1.8 3 1.6 1.5 1.4 2.2 2.6 4.2 2.6 0 0 1.5-.2 2-.5.6-.4.6 4 .8 4.5 1 4.8 1.4 9.8 2.2 14.7.3 1.9 1.1 4.5 1.1 6.6l1 5.6c.3 1.5.6 3 .6 4.4l.4 3.2c.9 3.6-2.5 8.7 2.5 11 1.9 1 4.4.6 6.4.6h12.8l58.3-.2c4.3 0 6.4.2 7.2-1.6 1.2-2.7.6-4.7.3-7.5-.1-1.7 1.2-4.3 1.5-6.1 1.3-10 3-20 4.4-30 .6-4.5 2.5-9 .2-13.2-3.4-6-9.5-.7-13.9-3.5-2.4-1.6-2.1-8.3-3.3-11 4.7-2.2 6.6-7.2 8.8-11.4.8-1.6 2.4-3.1 3-4.8.8-2.6-.6-6.4-3.4-6.4 0-5.6-4.1-9.9-4.9-15-.2-1.4.9-2.7 1.3-4 .7-1.8 1-4 1.3-6 .5-5.8-.9-11.2-1.3-17-.2-2.4.5-7.6-3.2-8.5a3 3 0 0 0-.7-.1zm.4 1.6-.3 2.9h.3l1.3-1 1 2c-1.7 6.1 1.2 13.2.6 19.8-.3 3-3.1 7.5-2.6 10.2.3 1.7 1.5 3.3 2.1 4.8 1.7 4.2 3.4 8.6 3.4 13.2l2.5-1-1 2.9h1.4c-.5 2.1-2 3.8-3 5.7C105.6 84 72.6 87.2 52 77c-4.4-2.2-9.3-4.3-12.4-8-1.2-1.5-1.6-3.3-2.6-4.9-.8-1.2-2-1.8-2.6-3.2l.3-.3 1 .3-1.3-3.2 1.6.7a53 53 0 0 1 2.7-17.3c.8-2.6 3.2-5.7 3.4-8.3.2-2.5-1.8-5.9-2.2-8.4-.8-5.3.4-9.8.7-15 .1-2-1-3-.5-5.1l1 .3V2.9l1.3 1.3c5.8-4.7 11 3.8 14.5 8 .8 1 1.9 3 3 3.4 1.4.4 3.7-1.3 4.9-1.8 2.5-1 5.6-1 8-2.3 1.4-.7 2.3-2.2 3.8-2.8v1.6l2.2-1c.8 2.7 2.8 2 5.2 2.7a26 26 0 0 1 8.6 3.7c.9-1.8 2.4-3 3.8-4.5 3.1-3 7.5-9.6 12.5-8.3zm1 3.9.3.3ZM38 22.7l2 10-2.5 6-2.7 11.9c-6.2-1-7 8.4-2.6 10.9-.1 2.4 1.8 1.7 3 3.2 1.4 1.8 1.6 4 3.4 5.7 1.6 1.4 3.3 3.1 5.2 4.3 1 .6 2.5 1 3.2 2 1.2 1.7-.5 5.9-.7 7.8-6 0-17.2-2.4-19.6 4.8-.7 2-.3 3.8-.2 5.8-1.8-.3-5.4 0-3.5-2.6-2.1-.1-6.1-.7-4.5-3.5-2.8-.8-5-4.4-1-3v-.2c-1.7-.7-6.3-2.2-4.1-4.5-1.5-.7-8.3-3.4-5.2-5.4-1.5-1.2-3-4.8-1-6.1V69c-3.5-1-3.5-5 0-2.2-.5-1.2-9.6-8-4-8.3-.6-2-2.2-7.8.2-8.3-.8-2.2 0-8 2.6-8.4.2-5.8 4.1-7.7 8.2-10.6 2-1.4 3.5-3.6 5.9-4.7 1.3-.6 4-.7 5.4-.9 2-.3 5.6-4.8 7-2zm20.4 14.4h-5.7c-1.8 0-4.8-.2-5.6 2-1 2.6.5 11.5 3 12.9 1.7.9 3.8.5 5.5.3 3.4-.5 8 .3 11.2-1.2 2.3-1.2 1.6-3.6 3-5.3 1-1.2 3.2-1.3 4.7-1.3 5 .1 2.8 4.5 6 6.4 3.2 1.9 9.6 1.3 13.2 1.6 1.4 0 3 .1 4.1-.8 2-1.5 3.7-9 3.5-11.4-.1-2.6-3.3-3.2-5.4-3.2-3.7 0-7.5.5-11.2.7-1.8 0-4-.4-5.7.4-1.6.7-2 2.1-2 3.7l-6.7.4c.6-2-.2-3.7-2.2-4.3a32.4 32.4 0 0 0-9.7-.9zM52 39.5h.8c.8 0 1.5.2 2.3.3h.2l12.7.9h.2c-.2 1.7-1 6.9-2.4 8a7 7 0 0 1-3.2.6l-6.8.6c-1.7.2-3.7.2-4.3-.5-1-1-1.1-3.6-1.4-5-.2-1-1.2-3.3-.3-4.2.3-.4.8-.6 1.4-.6h.8zm43.4 0h.3c1 0 2 .2 2.4.7 1 1-.8 8.6-1.9 9.4-1 .7-3.2.4-5 .2l-5.4-.4-1-.1h-.5a5 5 0 0 1-2.2-.7c-1.6-1-2.2-6.2-2.4-8l6.4-.3h.2a32.2 32.2 0 0 0 4.3-.4l2.8-.2a16.8 16.8 0 0 1 2-.2zm-36.7.6c-.6 0-1 .1-1.5.3-4 2-3.2 5.8-.3 8 0 .1.7.6 2 .6a4.3 4.3 0 0 0 1.1-.2l.7-.3.7-.4c2.6-1.7 3.3-5.5 0-7.3a5.6 5.6 0 0 0-2.7-.7zm30.7.1h-.5l-2.1.6c-3.7 2-2.4 6.4.9 7.8l1.6.4c2.8 0 4.2-3.6 4.4-4.3a4 4 0 0 0-1-3 4.6 4.6 0 0 0-3.3-1.5zM87 41.5l.7.1c-1 2.1-2.3 0-.8-.1zm-30.5 0c.6 0 .8 1 .1 1.2-.7.1-1-1-.2-1.2h.1zm2.1 2.7a2.4 2.4 0 0 1 .4 0c2.2.3 3 3.6.2 4.3-2.6.6-4-3.5-1.3-4.2a2.8 2.8 0 0 1 .7-.1zm30 .2c2.8-.1 3.6 4 .7 4.2-3 .3-3.8-4.2-.6-4.2zm-15 5.3a16.2 16.2 0 0 0-3.5.4c-2.3.8-2 2.8-.3 4.2a6.8 6.8 0 0 0 6.4 1c1.9-.7 4-3.5 1.6-5a10 10 0 0 0-3.8-.6h-.3zm-40 1.8c1.2 3.5-.7 4.2-1 7.4-2.2-1.2-2.3-4-1.2-6l.6.6h.3zm40 7c-1.1 2.5-3 5.4-6 5.1-1.4 0-6.5-3.2-7-2-.6 1.7 2.6 3 3.7 3.4 3.3 1.2 7.8 1 9.3-2.6 3.5 2.3 5.5 4.2 10 2.7 1-.4 5-2.2 3.8-3.8-.6-.8-1.7.1-2.3.5-1.7 1-3.9 2.3-6 1.7-2.8-.7-3.2-3.9-5.5-5zm-66 11.3 1 1zM108 74.6l2.2 9.9H48.3l1-6.7c4.6 1 8.7 3.9 13.4 4.8a62.3 62.3 0 0 0 36.2-3c3.3-1.3 5.9-3.4 9-5zm-87.7 15 .3.3zm5.3 3 .2.1zm45.9 4 1.3 15.7-3.6-1.6-1.9 4.2 2.3 1.6h.3l7-7.4 2.8-3.2-1.5-3.2c5.3-1.7 11-5.6 16.6-6-.7 5-5 11.5-7.6 16l-2.3-2.3h-.3l-10.9 10 1.6 1.5 4.2-1.9-1.6-2.5c3.7-1.3 10.1.1 14 .6-1.1 1.4-3.1 2-4.7 3-4 2-9.1 5.6-13.5 6.3l-3-3.3-.8-.9-5.1 5.1-4.2-2.5v-.3l5.4-5.8c-1.2-.6-4.9-2.1-5.2-3.6-.3-1.2 1.4-3.3 2-4.4l5.6-11.2c.7-1.5 1.2-3.6 3-3.8zm22 .7c-3.7 2.5-10 4.8-14.3 5.8l1.4 2.8-2 2.6-6.2 6-2.5 2.2-3.5-1.8 2.5-4.8 3.2 1.3-1.3-13.5h-.3l-9.3 18.3 5.8 3.5-5.4 6.4 2.5 1.3 5.5-4 .3-.3.7.6 4 2.8 4.9-2.2 11.2-5.6v-.3l-11.9-.6 1.3 2.5c-1 .5-4.2 1.8-5 2l-1.7-2 2.6-2.8 6-5.4c.7-.5 1.7-1.8 2.6-1.9.9-.1 1.9 1 2.6 1.5l5-10.2zm-2.5 5.1-4.2 8h-.3c-.5-2.3 2.7-6.6 4.5-8zM70.7 104l.7 6.4c-1.5-.8-1.4-5-.7-6.4zm15 16.3c2.4-.3-6.1 3-6.1 3-3.4 1.7-6 3.1-5 2.3 1-.8 1.4-1.2 2.1-1.6 2.7-1.4 6.2-3.2 9-3.7z"/>
</svg>
